<svg width="177" height="113" viewBox="0 0 177 113" fill="none" xmlns="http://www.w3.org/2000/svg">
<path d="M19.712 83.32C17.2373 83.32 14.4427 83.1067 11.328 82.68C9.62133 82.4667 8.448 82.0187 7.808 81.336C7.168 80.6533 6.89067 79.544 6.976 78.008C7.27467 73.784 7.97867 68.5787 9.088 62.392C10.1973 56.1627 11.5413 50.168 13.12 44.408C13.4187 43.3413 14.016 42.5947 14.912 42.168C15.808 41.7413 16.9813 41.528 18.432 41.528C21.0347 41.528 22.336 42.2533 22.336 43.704C22.336 44.3013 22.208 44.984 21.952 45.752C20.8427 49.1653 19.7333 53.752 18.624 59.512C17.5147 65.2293 16.7253 70.6907 16.256 75.896C17.536 76.024 18.9867 76.088 20.608 76.088C28.0747 76.088 33.6427 73.8267 37.312 69.304C41.024 64.7813 42.88 58.744 42.88 51.192C42.88 46.1147 41.4293 42.1893 38.528 39.416C35.6267 36.6427 31.5307 35.256 26.24 35.256C22.8267 35.256 19.4347 35.7893 16.064 36.856C12.736 37.9227 9.728 39.3307 7.04 41.08C6.48533 41.464 5.888 41.656 5.248 41.656C4.52267 41.656 3.94667 41.3573 3.52 40.76C3.09333 40.12 2.88 39.352 2.88 38.456C2.88 37.432 3.05067 36.6 3.392 35.96C3.73333 35.2773 4.30933 34.6587 5.12 34.104C8.064 32.0987 11.52 30.584 15.488 29.56C19.456 28.4933 23.2747 27.96 26.944 27.96C32.1493 27.96 36.6507 28.8773 40.448 30.712C44.2453 32.504 47.168 35.1493 49.216 38.648C51.264 42.1467 52.288 46.3707 52.288 51.32C52.288 57.7627 51.008 63.3947 48.448 68.216C45.888 72.9947 42.1547 76.7067 37.248 79.352C32.3413 81.9973 26.496 83.32 19.712 83.32ZM60.491 83.32C58.8697 83.32 57.7177 82.4667 57.035 80.76C56.395 79.0533 56.075 76.3227 56.075 72.568C56.075 67.0213 56.8643 61.752 58.443 56.76C58.827 55.5227 59.4457 54.6267 60.299 54.072C61.195 53.4747 62.4323 53.176 64.011 53.176C64.8643 53.176 65.4617 53.2827 65.803 53.496C66.1443 53.7093 66.315 54.1147 66.315 54.712C66.315 55.3947 65.995 56.9307 65.355 59.32C64.9283 61.0267 64.587 62.52 64.331 63.8C64.075 65.08 63.8617 66.6587 63.691 68.536C65.099 64.8667 66.6777 61.88 68.427 59.576C70.1763 57.272 71.883 55.6293 73.547 54.648C75.2537 53.6667 76.811 53.176 78.219 53.176C80.9923 53.176 82.379 54.5627 82.379 57.336C82.379 57.8907 82.187 59.2347 81.803 61.368C81.4617 63.0747 81.291 64.1413 81.291 64.568C81.291 66.0613 81.8243 66.808 82.891 66.808C84.0857 66.808 85.6217 65.8693 87.499 63.992C88.0537 63.4373 88.6297 63.16 89.227 63.16C89.7817 63.16 90.2083 63.416 90.507 63.928C90.8483 64.3973 91.019 65.0373 91.019 65.848C91.019 67.4267 90.5923 68.664 89.739 69.56C88.5443 70.7973 87.1363 71.864 85.515 72.76C83.9363 73.6133 82.251 74.04 80.459 74.04C78.1977 74.04 76.4697 73.464 75.275 72.312C74.123 71.16 73.547 69.6027 73.547 67.64C73.547 67 73.611 66.36 73.739 65.72C73.8243 64.8667 73.867 64.2907 73.867 63.992C73.867 63.3093 73.6323 62.968 73.163 62.968C72.523 62.968 71.6697 63.6933 70.603 65.144C69.579 66.552 68.555 68.4293 67.531 70.776C66.507 73.1227 65.675 75.5973 65.035 78.2C64.5657 80.2053 64.011 81.5707 63.371 82.296C62.7737 82.9787 61.8137 83.32 60.491 83.32ZM93.456 48.952C91.664 48.952 90.32 48.5467 89.424 47.736C88.528 46.8827 88.08 45.7093 88.08 44.216C88.08 42.7227 88.656 41.4853 89.808 40.504C91.0027 39.48 92.4747 38.968 94.224 38.968C95.8027 38.968 97.0827 39.352 98.064 40.12C99.0453 40.888 99.536 41.976 99.536 43.384C99.536 45.0907 98.9813 46.456 97.872 47.48C96.7627 48.4613 95.2907 48.952 93.456 48.952ZM92.944 83.32C90.1707 83.32 88.144 82.3387 86.864 80.376C85.6267 78.4133 85.008 75.8107 85.008 72.568C85.008 70.648 85.2427 68.1947 85.712 65.208C86.224 62.1787 86.864 59.3627 87.632 56.76C88.016 55.3947 88.528 54.456 89.168 53.944C89.808 53.432 90.832 53.176 92.24 53.176C94.416 53.176 95.504 53.9013 95.504 55.352C95.504 56.4187 95.0987 58.8933 94.288 62.776C93.264 67.4693 92.752 70.648 92.752 72.312C92.752 73.592 92.9227 74.5733 93.264 75.256C93.6053 75.9387 94.1813 76.28 94.992 76.28C95.76 76.28 96.72 75.7467 97.872 74.68C99.024 73.6133 100.56 71.928 102.48 69.624C102.992 69.0267 103.568 68.728 104.208 68.728C104.763 68.728 105.189 68.984 105.488 69.496C105.829 70.008 106 70.712 106 71.608C106 73.3147 105.595 74.6373 104.784 75.576C100.56 80.7387 96.6133 83.32 92.944 83.32ZM133.127 63.544C133.255 63.5013 133.468 63.48 133.767 63.48C134.407 63.48 134.898 63.6933 135.239 64.12C135.58 64.5467 135.751 65.1227 135.751 65.848C135.751 67.1707 135.495 68.216 134.983 68.984C134.471 69.7093 133.703 70.2427 132.679 70.584C130.716 71.224 128.626 71.544 126.407 71.544C124.53 71.544 122.759 71.288 121.095 70.776C119.858 72.7813 118.492 74.8507 116.999 76.984C115.292 79.416 113.82 81.08 112.583 81.976C111.346 82.872 109.938 83.32 108.359 83.32C106.61 83.32 105.223 82.6373 104.199 81.272C103.218 79.9067 102.599 77.752 102.343 74.808C101.831 68.8347 101.575 63.608 101.575 59.128V56.888C101.618 55.48 102.002 54.4987 102.727 53.944C103.452 53.3893 104.54 53.112 105.991 53.112C107.1 53.112 107.911 53.368 108.423 53.88C108.978 54.3493 109.255 55.16 109.255 56.312C109.255 61.2187 109.554 67.5973 110.151 75.448C112.711 71.6507 114.631 68.6213 115.911 66.36C115.271 65.1227 114.951 63.6507 114.951 61.944C114.951 60.4933 115.271 59.0853 115.911 57.72C116.551 56.3547 117.426 55.2453 118.535 54.392C119.644 53.5387 120.903 53.112 122.311 53.112C123.548 53.112 124.551 53.56 125.319 54.456C126.087 55.3093 126.471 56.568 126.471 58.232C126.471 60.152 125.959 62.3493 124.935 64.824C126.556 64.7387 128.711 64.4187 131.399 63.864L133.127 63.544ZM154.453 68.728C155.008 68.728 155.434 68.984 155.733 69.496C156.074 70.008 156.245 70.712 156.245 71.608C156.245 73.3147 155.84 74.6373 155.029 75.576C153.194 77.8373 151.189 79.6933 149.013 81.144C146.88 82.5947 144.448 83.32 141.717 83.32C137.962 83.32 135.168 81.6133 133.333 78.2C131.541 74.7867 130.645 70.3707 130.645 64.952C130.645 59.7467 131.306 53.816 132.629 47.16C133.994 40.504 135.978 34.7867 138.581 30.008C141.226 25.2293 144.362 22.84 147.989 22.84C150.037 22.84 151.637 23.8 152.789 25.72C153.984 27.5973 154.581 30.3067 154.581 33.848C154.581 38.9253 153.173 44.8133 150.357 51.512C147.541 58.2107 143.722 64.8453 138.901 71.416C139.2 73.1653 139.69 74.424 140.373 75.192C141.056 75.9173 141.952 76.28 143.061 76.28C144.81 76.28 146.346 75.7893 147.669 74.808C148.992 73.784 150.677 72.056 152.725 69.624C153.237 69.0267 153.813 68.728 154.453 68.728ZM146.581 29.176C145.6 29.176 144.49 30.9467 143.253 34.488C142.016 38.0293 140.928 42.424 139.989 47.672C139.05 52.92 138.538 57.9547 138.453 62.776C141.482 57.784 143.893 52.792 145.685 47.8C147.477 42.7653 148.373 38.1787 148.373 34.04C148.373 30.7973 147.776 29.176 146.581 29.176ZM173.472 53.176C174.453 53.176 175.136 53.304 175.52 53.56C175.904 53.816 176.096 54.2427 176.096 54.84C176.096 55.864 175.541 59.512 174.432 65.784C173.451 71.8 172.875 75.3627 172.704 76.472C171.125 87.4373 168.949 96.12 166.176 102.52C163.403 108.92 159.712 112.12 155.104 112.12C152.928 112.12 151.157 111.437 149.792 110.072C148.427 108.749 147.744 107 147.744 104.824C147.744 102.819 148.192 100.771 149.088 98.68C150.027 96.5893 151.733 94.1787 154.208 91.448C156.725 88.76 160.267 85.6667 164.832 82.168L165.024 80.696C165.323 79.1173 165.664 76.856 166.048 73.912C165.195 76.984 164 79.3307 162.464 80.952C160.928 82.5307 159.307 83.32 157.6 83.32C155.68 83.32 154.101 82.4453 152.864 80.696C151.669 78.904 151.072 76.6853 151.072 74.04C151.072 70.84 151.285 67.9173 151.712 65.272C152.139 62.584 152.843 59.7467 153.824 56.76C154.251 55.48 154.848 54.5627 155.616 54.008C156.384 53.4533 157.6 53.176 159.264 53.176C160.203 53.176 160.843 53.3253 161.184 53.624C161.568 53.9227 161.76 54.3707 161.76 54.968C161.76 55.3093 161.525 56.4613 161.056 58.424C160.629 60.0027 160.288 61.432 160.032 62.712C159.691 64.4613 159.392 66.1467 159.136 67.768C158.88 69.3467 158.752 70.648 158.752 71.672C158.752 73.2933 159.2 74.104 160.096 74.104C160.736 74.104 161.525 73.464 162.464 72.184C163.445 70.904 164.469 68.9627 165.536 66.36C166.645 63.7573 167.712 60.5573 168.736 56.76C169.077 55.48 169.589 54.5627 170.272 54.008C170.997 53.4533 172.064 53.176 173.472 53.176ZM155.808 105.912C156.875 105.912 158.069 104.675 159.392 102.2C160.715 99.7253 162.037 95.608 163.36 89.848C160.075 92.6213 157.685 95.1387 156.192 97.4C154.741 99.704 154.016 101.709 154.016 103.416C154.016 104.141 154.144 104.739 154.4 105.208C154.699 105.677 155.168 105.912 155.808 105.912Z" fill="black"/>
<path d="M11.328 82.68L11.4637 81.6892L11.452 81.6877L11.328 82.68ZM7.808 81.336L7.07846 82.0199L7.07846 82.0199L7.808 81.336ZM6.976 78.008L5.97849 77.9375L5.97796 77.945L5.97754 77.9525L6.976 78.008ZM9.088 62.392L10.0723 62.5685L10.0725 62.5673L9.088 62.392ZM13.12 44.408L12.157 44.1384L12.1556 44.1437L13.12 44.408ZM21.952 45.752L21.0033 45.4358L21.001 45.4429L21.952 45.752ZM18.624 59.512L19.6057 59.7025L19.606 59.7011L18.624 59.512ZM16.256 75.896L15.26 75.8062L15.1711 76.7925L16.1565 76.891L16.256 75.896ZM37.312 69.304L36.539 68.6696L36.5354 68.674L37.312 69.304ZM38.528 39.416L39.219 38.6931L39.219 38.6931L38.528 39.416ZM16.064 36.856L15.7623 35.9026L15.7588 35.9037L16.064 36.856ZM7.04 41.08L6.49454 40.2419L6.48255 40.2497L6.47079 40.2578L7.04 41.08ZM3.52 40.76L2.68795 41.3147L2.69689 41.3281L2.70627 41.3412L3.52 40.76ZM3.392 35.96L4.27435 36.4306L4.28054 36.419L4.28643 36.4072L3.392 35.96ZM5.12 34.104L4.55703 33.2775L4.55532 33.2787L5.12 34.104ZM15.488 29.56L15.7379 30.5283L15.7476 30.5257L15.488 29.56ZM40.448 30.712L40.013 31.6125L40.0212 31.6164L40.448 30.712ZM49.216 38.648L50.079 38.1428L50.079 38.1428L49.216 38.648ZM48.448 68.216L49.3295 68.6882L49.3312 68.685L48.448 68.216ZM37.248 79.352L36.7734 78.4718L36.7734 78.4718L37.248 79.352ZM19.712 82.32C17.2929 82.32 14.5448 82.1113 11.4637 81.6893L11.1923 83.6707C14.3405 84.102 17.1817 84.32 19.712 84.32V82.32ZM11.452 81.6877C9.80583 81.4819 8.93018 81.0709 8.53754 80.6521L7.07846 82.0199C7.96582 82.9665 9.43683 83.4514 11.204 83.6723L11.452 81.6877ZM8.53754 80.6521C8.17478 80.2651 7.89493 79.4949 7.97446 78.0635L5.97754 77.9525C5.8864 79.5931 6.16122 81.0415 7.07846 82.0199L8.53754 80.6521ZM7.97351 78.0785C8.26878 73.9026 8.96656 68.7351 10.0723 62.5685L8.1037 62.2155C6.99077 68.4222 6.28056 73.6654 5.97849 77.9375L7.97351 78.0785ZM10.0725 62.5673C11.1768 56.3662 12.5143 50.4013 14.0844 44.6723L12.1556 44.1437C10.5684 49.9347 9.21785 55.9591 8.10349 62.2167L10.0725 62.5673ZM14.083 44.6776C14.3139 43.853 14.7388 43.3581 15.3419 43.0709L14.4821 41.2651C13.2932 41.8313 12.5235 42.8297 12.157 44.1384L14.083 44.6776ZM15.3419 43.0709C16.0563 42.7307 17.0668 42.528 18.432 42.528V40.528C16.8959 40.528 15.5597 40.752 14.4821 41.2651L15.3419 43.0709ZM18.432 42.528C19.6732 42.528 20.4446 42.7066 20.8731 42.9455C21.0723 43.0565 21.1758 43.1683 21.2338 43.2653C21.2909 43.3608 21.336 43.4955 21.336 43.704H23.336C23.336 43.1872 23.2184 42.6872 22.9502 42.2387C22.6829 41.7916 22.2984 41.4502 21.8469 41.1985C20.974 40.712 19.7935 40.528 18.432 40.528V42.528ZM21.336 43.704C21.336 44.1633 21.2366 44.736 21.0033 45.4358L22.9007 46.0682C23.1794 45.232 23.336 44.4394 23.336 43.704H21.336ZM21.001 45.4429C19.8734 48.9123 18.755 53.5443 17.642 59.3229L19.606 59.7011C20.7117 53.9597 21.8119 49.4184 22.903 46.0611L21.001 45.4429ZM17.6423 59.3215C16.5272 65.0684 15.7327 70.5635 15.26 75.8062L17.252 75.9858C17.7179 70.8178 18.5021 65.3902 19.6057 59.7025L17.6423 59.3215ZM16.1565 76.891C17.4768 77.0231 18.9615 77.088 20.608 77.088V75.088C19.0118 75.088 17.5952 75.0249 16.3555 74.901L16.1565 76.891ZM20.608 77.088C28.2839 77.088 34.178 74.754 38.0886 69.934L36.5354 68.674C33.1073 72.8993 27.8655 75.088 20.608 75.088V77.088ZM38.085 69.9384C41.9819 65.1904 43.88 58.907 43.88 51.192H41.88C41.88 58.5809 40.0661 64.3723 36.539 68.6696L38.085 69.9384ZM43.88 51.192C43.88 45.9183 42.367 41.7023 39.219 38.6931L37.837 40.1389C40.4917 42.6764 41.88 46.311 41.88 51.192H43.88ZM39.219 38.6931C36.0784 35.6911 31.7037 34.256 26.24 34.256V36.256C31.3576 36.256 35.1749 37.5942 37.837 40.1389L39.219 38.6931ZM26.24 34.256C22.7207 34.256 19.227 34.8062 15.7623 35.9026L16.3657 37.8094C19.6423 36.7725 22.9327 36.256 26.24 36.256V34.256ZM15.7588 35.9037C12.3535 36.9951 9.26354 38.4398 6.49454 40.2419L7.58546 41.9181C10.1925 40.2215 13.1185 38.8502 16.3692 37.8083L15.7588 35.9037ZM6.47079 40.2578C6.07379 40.5327 5.67326 40.656 5.248 40.656V42.656C6.10274 42.656 6.89688 42.3953 7.60921 41.9022L6.47079 40.2578ZM5.248 40.656C4.85022 40.656 4.57538 40.5171 4.33373 40.1788L2.70627 41.3412C3.31795 42.1976 4.19511 42.656 5.248 42.656V40.656ZM4.35205 40.2053C4.05203 39.7553 3.88 39.1879 3.88 38.456H1.88C1.88 39.5161 2.13464 40.4847 2.68795 41.3147L4.35205 40.2053ZM3.88 38.456C3.88 37.5325 4.03549 36.8785 4.27435 36.4306L2.50965 35.4894C2.06584 36.3215 1.88 37.3315 1.88 38.456H3.88ZM4.28643 36.4072C4.533 35.9141 4.97502 35.4149 5.68468 34.9293L4.55532 33.2787C3.64365 33.9025 2.93367 34.6406 2.49757 35.5128L4.28643 36.4072ZM5.68297 34.9305C8.5184 32.9991 11.8651 31.5277 15.7379 30.5283L15.2381 28.5917C11.1749 29.6403 7.60961 31.1982 4.55704 33.2775L5.68297 34.9305ZM15.7476 30.5257C19.6409 29.4791 23.3721 28.96 26.944 28.96V26.96C23.1773 26.96 19.2711 27.5075 15.2284 28.5943L15.7476 30.5257ZM26.944 28.96C32.0332 28.96 36.3793 29.8568 40.013 31.6124L40.883 29.8116C36.922 27.8978 32.2655 26.96 26.944 26.96V28.96ZM40.0212 31.6164C43.6432 33.3256 46.4106 35.835 48.353 39.1532L50.079 38.1428C47.9254 34.4637 44.8475 31.6824 40.8748 29.8076L40.0212 31.6164ZM48.353 39.1532C50.2934 42.4681 51.288 46.5091 51.288 51.32H53.288C53.288 46.2322 52.2346 41.8253 50.079 38.1428L48.353 39.1532ZM51.288 51.32C51.288 57.6286 50.0354 63.0941 47.5648 67.747L49.3312 68.685C51.9806 63.6953 53.288 57.8967 53.288 51.32H51.288ZM47.5665 67.7438C45.1019 72.3444 41.5125 75.9168 36.7734 78.4718L37.7226 80.2322C42.7968 77.4966 46.6741 73.645 49.3295 68.6882L47.5665 67.7438ZM36.7734 78.4718C32.041 81.0232 26.366 82.32 19.712 82.32V84.32C26.626 84.32 32.6416 82.9715 37.7226 80.2322L36.7734 78.4718ZM57.035 80.76L56.0987 81.1111L56.1025 81.1213L56.1065 81.1314L57.035 80.76ZM58.443 56.76L59.3965 57.0615L59.3981 57.0564L58.443 56.76ZM60.299 54.072L60.844 54.9105L60.8537 54.904L60.299 54.072ZM65.355 59.32L64.3891 59.0613L64.3869 59.0693L64.3849 59.0775L65.355 59.32ZM63.691 68.536L62.6951 68.4455L64.6246 68.8943L63.691 68.536ZM68.427 59.576L67.6306 58.9713L67.6306 58.9713L68.427 59.576ZM73.547 54.648L73.0485 53.781L73.039 53.7866L73.547 54.648ZM81.803 61.368L82.7836 61.5641L82.7855 61.5546L82.7872 61.5452L81.803 61.368ZM87.499 63.992L86.7919 63.2849L86.7919 63.2849L87.499 63.992ZM90.507 63.928L89.6432 64.4319L89.6686 64.4754L89.6983 64.5162L90.507 63.928ZM89.739 69.56L90.4584 70.2546L90.4631 70.2497L89.739 69.56ZM85.515 72.76L85.9905 73.6397L85.9987 73.6352L85.515 72.76ZM75.275 72.312L74.5679 73.0191L74.5743 73.0255L74.5809 73.0318L75.275 72.312ZM73.739 65.72L74.7196 65.9161L74.7292 65.8682L74.734 65.8195L73.739 65.72ZM70.603 65.144L69.7973 64.5516L69.7943 64.5558L70.603 65.144ZM67.531 70.776L66.6145 70.3761L66.6145 70.3761L67.531 70.776ZM65.035 78.2L64.0639 77.9612L64.0613 77.9721L65.035 78.2ZM63.371 82.296L62.6212 81.6344L62.6184 81.6375L63.371 82.296ZM60.491 82.32C59.8653 82.32 59.3878 82.1591 59.0062 81.8764C58.6158 81.5873 58.2551 81.1177 57.9635 80.3886L56.1065 81.1314C56.4976 82.109 57.0542 82.9194 57.8158 83.4836C58.5862 84.0542 59.4953 84.32 60.491 84.32V82.32ZM57.9713 80.4089C57.3981 78.8803 57.075 76.3024 57.075 72.568H55.075C55.075 76.3429 55.3919 79.2264 56.0987 81.1111L57.9713 80.4089ZM57.075 72.568C57.075 67.1175 57.8504 61.9503 59.3965 57.0615L57.4895 56.4585C55.8782 61.5537 55.075 66.9251 55.075 72.568H57.075ZM59.3981 57.0564C59.7322 55.9799 60.2349 55.3064 60.844 54.9104L59.754 53.2336C58.6565 53.947 57.9218 55.0655 57.4879 56.4636L59.3981 57.0564ZM60.8537 54.904C61.5255 54.4562 62.5427 54.176 64.011 54.176V52.176C62.322 52.176 60.8645 52.4931 59.7443 53.2399L60.8537 54.904ZM64.011 54.176C64.8444 54.176 65.1895 54.2918 65.273 54.344L66.333 52.648C65.7338 52.2735 64.8843 52.176 64.011 52.176V54.176ZM65.273 54.344C65.2526 54.3312 65.2523 54.3169 65.2654 54.3481C65.284 54.3924 65.315 54.5017 65.315 54.712H67.315C67.315 53.9495 67.092 53.1224 66.333 52.648L65.273 54.344ZM65.315 54.712C65.315 54.9412 65.2553 55.4075 65.096 56.172C64.9414 56.9144 64.7066 57.8757 64.3891 59.0613L66.3209 59.5787C66.6434 58.375 66.8886 57.3736 67.054 56.58C67.2147 55.8085 67.315 55.1655 67.315 54.712H65.315ZM64.3849 59.0775C63.9556 60.7946 63.6104 62.3041 63.3504 63.6039L65.3116 63.9961C65.5636 62.7359 65.9011 61.2587 66.3251 59.5625L64.3849 59.0775ZM63.3504 63.6039C63.0851 64.9303 62.8677 66.5468 62.6951 68.4455L64.6869 68.6265C64.8556 66.7706 65.0649 65.2297 65.3116 63.9961L63.3504 63.6039ZM64.6246 68.8943C66.01 65.2838 67.5475 62.388 69.2234 60.1807L67.6306 58.9713C65.8078 61.372 64.188 64.4495 62.7574 68.1777L64.6246 68.8943ZM69.2234 60.1807C70.9296 57.9336 72.5442 56.4004 74.055 55.5094L73.039 53.7866C71.2218 54.8583 69.4231 56.6104 67.6306 58.9713L69.2234 60.1807ZM74.0455 55.5149C75.6579 54.5878 77.042 54.176 78.219 54.176V52.176C76.58 52.176 74.8495 52.7456 73.0485 53.7811L74.0455 55.5149ZM78.219 54.176C79.4515 54.176 80.1922 54.4835 80.6319 54.9231C81.0715 55.3628 81.379 56.1035 81.379 57.336H83.379C83.379 55.7952 82.9931 54.4559 82.0461 53.5089C81.0991 52.5619 79.7598 52.176 78.219 52.176V54.176ZM81.379 57.336C81.379 57.7815 81.2085 59.0258 80.8188 61.1908L82.7872 61.5452C83.1655 59.4436 83.379 57.9998 83.379 57.336H81.379ZM80.8224 61.1719C80.6505 62.0313 80.5198 62.7387 80.4316 63.29C80.3467 63.8202 80.291 64.2657 80.291 64.568H82.291C82.291 64.4437 82.3206 64.1425 82.4064 63.606C82.4889 63.0907 82.6141 62.4114 82.7836 61.5641L80.8224 61.1719ZM80.291 64.568C80.291 65.4035 80.4348 66.2097 80.8773 66.8292C81.3641 67.5107 82.0948 67.808 82.891 67.808V65.808C82.6205 65.808 82.5513 65.7319 82.5047 65.6668C82.4139 65.5396 82.291 65.2258 82.291 64.568H80.291ZM82.891 67.808C83.7431 67.808 84.6093 67.4774 85.4605 66.9573C86.3195 66.4323 87.2353 65.6699 88.2061 64.6991L86.7919 63.2849C85.8854 64.1914 85.0945 64.837 84.4176 65.2507C83.7327 65.6693 83.2336 65.808 82.891 65.808V67.808ZM88.2061 64.6991C88.6342 64.271 88.9702 64.16 89.227 64.16V62.16C88.2891 62.16 87.4731 62.6037 86.7919 63.2849L88.2061 64.6991ZM89.227 64.16C89.3972 64.16 89.5088 64.2014 89.6432 64.4319L91.3708 63.4241C90.9079 62.6306 90.1662 62.16 89.227 62.16V64.16ZM89.6983 64.5162C89.8746 64.7587 90.019 65.1671 90.019 65.848H92.019C92.019 64.9076 91.822 64.036 91.3157 63.3398L89.6983 64.5162ZM90.019 65.848C90.019 67.2436 89.6461 68.2076 89.0149 68.8703L90.4631 70.2497C91.5386 69.1204 92.019 67.6097 92.019 65.848H90.019ZM89.0196 68.8654C87.8992 70.0258 86.5722 71.0332 85.0313 71.8848L85.9987 73.6352C87.7005 72.6948 89.1895 71.5688 90.4584 70.2546L89.0196 68.8654ZM85.0395 71.8803C83.6067 72.6548 82.0847 73.04 80.459 73.04V75.04C82.4173 75.04 84.266 74.5719 85.9905 73.6397L85.0395 71.8803ZM80.459 73.04C78.3609 73.04 76.9183 72.5075 75.9691 71.5922L74.5809 73.0318C76.021 74.4205 78.0344 75.04 80.459 75.04V73.04ZM75.9821 71.6049C75.055 70.6778 74.547 69.3955 74.547 67.64H72.547C72.547 69.8098 73.191 71.6422 74.5679 73.0191L75.9821 71.6049ZM74.547 67.64C74.547 67.0671 74.6042 66.4928 74.7196 65.9161L72.7584 65.5239C72.6178 66.2272 72.547 66.9329 72.547 67.64H74.547ZM74.734 65.8195C74.8187 64.9729 74.867 64.3483 74.867 63.992H72.867C72.867 64.233 72.83 64.7605 72.744 65.6205L74.734 65.8195ZM74.867 63.992C74.867 63.5671 74.7996 63.0714 74.515 62.6575C74.184 62.176 73.676 61.968 73.163 61.968V63.968C73.159 63.968 73.1072 63.967 73.0347 63.9318C72.9575 63.8944 72.9005 63.8393 72.867 63.7905C72.8379 63.7483 72.8399 63.7306 72.8483 63.7674C72.8567 63.8041 72.867 63.8754 72.867 63.992H74.867ZM73.163 61.968C72.4833 61.968 71.8802 62.338 71.3954 62.7501C70.8851 63.1838 70.3525 63.7966 69.7973 64.5516L71.4087 65.7364C71.9202 65.0407 72.3476 64.5655 72.6906 64.2739C73.0592 63.9607 73.2027 63.968 73.163 63.968V61.968ZM69.7943 64.5558C68.7128 66.0429 67.6553 67.9909 66.6145 70.3761L68.4475 71.1759C69.4547 68.8678 70.4452 67.0611 71.4117 65.7322L69.7943 64.5558ZM66.6145 70.3761C65.5667 72.7772 64.7169 75.3059 64.0639 77.9612L66.0061 78.4388C66.6331 75.8887 67.4473 73.4682 68.4475 71.1759L66.6145 70.3761ZM64.0613 77.9721C63.5962 79.9595 63.0844 81.1094 62.6212 81.6344L64.1208 82.9576C64.9376 82.032 65.5351 80.4512 66.0087 78.4279L64.0613 77.9721ZM62.6184 81.6375C62.2847 82.0189 61.6602 82.32 60.491 82.32V84.32C61.9672 84.32 63.2627 83.9384 64.1236 82.9545L62.6184 81.6375ZM89.424 47.736L88.7343 48.4601L88.7436 48.469L88.7531 48.4775L89.424 47.736ZM89.808 40.504L90.4565 41.2652L90.4588 41.2633L89.808 40.504ZM98.064 40.12L97.4477 40.9075L98.064 40.12ZM97.872 47.48L98.5346 48.229L98.5425 48.222L98.5503 48.2148L97.872 47.48ZM86.864 80.376L86.0181 80.9093L86.0222 80.9158L86.0264 80.9223L86.864 80.376ZM85.712 65.208L84.7259 65.0413L84.7241 65.0528L85.712 65.208ZM87.632 56.76L88.5912 57.043L88.5947 57.0307L87.632 56.76ZM94.288 62.776L95.2651 62.9892L95.2669 62.9804L94.288 62.776ZM97.872 74.68L97.1926 73.9462L97.1926 73.9462L97.872 74.68ZM102.48 69.624L101.721 68.9731L101.712 68.9838L102.48 69.624ZM105.488 69.496L104.624 69.9999L104.639 70.0258L104.656 70.0507L105.488 69.496ZM104.784 75.576L104.027 74.9224L104.018 74.9325L104.01 74.9428L104.784 75.576ZM93.456 47.952C91.7948 47.952 90.7356 47.5741 90.0949 46.9945L88.7531 48.4775C89.9044 49.5192 91.5332 49.952 93.456 49.952V47.952ZM90.1137 47.0119C89.456 46.3856 89.08 45.4966 89.08 44.216H87.08C87.08 45.922 87.6 47.3798 88.7343 48.4601L90.1137 47.0119ZM89.08 44.216C89.08 43.0202 89.5241 42.0595 90.4565 41.2652L89.1595 39.7428C87.7879 40.9112 87.08 42.4252 87.08 44.216H89.08ZM90.4588 41.2633C91.4516 40.4122 92.6848 39.968 94.224 39.968V37.968C92.2645 37.968 90.5537 38.5478 89.1572 39.7447L90.4588 41.2633ZM94.224 39.968C95.6398 39.968 96.6847 40.3104 97.4477 40.9075L98.6803 39.3325C97.4807 38.3936 95.9655 37.968 94.224 37.968V39.968ZM97.4477 40.9075C98.1532 41.4596 98.536 42.2381 98.536 43.384H100.536C100.536 41.7139 99.9375 40.3164 98.6803 39.3325L97.4477 40.9075ZM98.536 43.384C98.536 44.8518 98.0702 45.9362 97.1937 46.7452L98.5503 48.2148C99.8925 46.9758 100.536 45.3296 100.536 43.384H98.536ZM97.2094 46.731C96.3237 47.5145 95.1072 47.952 93.456 47.952V49.952C95.4741 49.952 97.2016 49.4082 98.5346 48.229L97.2094 46.731ZM92.944 82.32C90.4367 82.32 88.7609 81.454 87.7016 79.8297L86.0264 80.9223C87.5271 83.2233 89.9046 84.32 92.944 84.32V82.32ZM87.7099 79.8427C86.6057 78.0912 86.008 75.6938 86.008 72.568H84.008C84.008 75.9275 84.6476 78.7354 86.0181 80.9093L87.7099 79.8427ZM86.008 72.568C86.008 70.7207 86.2346 68.3241 86.6999 65.3632L84.7241 65.0528C84.2507 68.0652 84.008 70.5753 84.008 72.568H86.008ZM86.698 65.3746C87.2042 62.3796 87.8358 59.6029 88.5911 57.043L86.6729 56.477C85.8922 59.1225 85.2438 61.9778 84.726 65.0413L86.698 65.3746ZM88.5947 57.0307C88.9589 55.7357 89.3971 55.0414 89.7927 54.7249L88.5433 53.1631C87.6589 53.8706 87.0731 55.0536 86.6693 56.4893L88.5947 57.0307ZM89.7927 54.7249C90.167 54.4254 90.9115 54.176 92.24 54.176V52.176C90.7525 52.176 89.449 52.4386 88.5433 53.1631L89.7927 54.7249ZM92.24 54.176C93.2485 54.176 93.8299 54.3498 94.1333 54.552C94.3651 54.7066 94.504 54.918 94.504 55.352H96.504C96.504 54.3354 96.0989 53.4588 95.2427 52.8879C94.4581 52.3649 93.4075 52.176 92.24 52.176V54.176ZM94.504 55.352C94.504 56.2933 94.1267 58.6558 93.3091 62.5716L95.2669 62.9804C96.0706 59.1309 96.504 56.544 96.504 55.352H94.504ZM93.311 62.5628C92.2903 67.2411 91.752 70.5232 91.752 72.312H93.752C93.752 70.7728 94.2377 67.6976 95.265 62.9892L93.311 62.5628ZM91.752 72.312C91.752 73.6553 91.9269 74.8179 92.3696 75.7032L94.1584 74.8088C93.9184 74.3288 93.752 73.5287 93.752 72.312H91.752ZM92.3696 75.7032C92.6138 76.1916 92.9667 76.6025 93.4422 76.8843C93.9141 77.1639 94.4451 77.28 94.992 77.28V75.28C94.7282 75.28 94.5659 75.2254 94.4618 75.1637C94.3613 75.1041 94.2556 75.003 94.1584 74.8088L92.3696 75.7032ZM94.992 77.28C96.1701 77.28 97.3785 76.4998 98.5514 75.4138L97.1926 73.9462C96.0616 74.9935 95.3499 75.28 94.992 75.28V77.28ZM98.5514 75.4138C99.7517 74.3024 101.321 72.5773 103.248 70.2642L101.712 68.9838C99.7993 71.2787 98.2963 72.9243 97.1926 73.9462L98.5514 75.4138ZM103.239 70.2748C103.609 69.8437 103.926 69.728 104.208 69.728V67.728C103.21 67.728 102.375 68.2096 101.721 68.9732L103.239 70.2748ZM104.208 69.728C104.378 69.728 104.49 69.7694 104.624 69.9999L106.352 68.9921C105.889 68.1986 105.147 67.728 104.208 67.728V69.728ZM104.656 70.0507C104.848 70.3394 105 70.824 105 71.608H107C107 70.6 106.81 69.6766 106.32 68.9413L104.656 70.0507ZM105 71.608C105 73.1649 104.631 74.2236 104.027 74.9224L105.541 76.2296C106.559 75.051 107 73.4644 107 71.608H105ZM104.01 74.9428C99.8303 80.0514 96.1414 82.32 92.944 82.32V84.32C97.0853 84.32 101.29 81.426 105.558 76.2092L104.01 74.9428ZM133.127 63.544L133.309 64.5273L133.377 64.5146L133.443 64.4927L133.127 63.544ZM134.983 68.984L135.8 69.5607L135.808 69.5498L135.815 69.5387L134.983 68.984ZM132.679 70.584L132.989 71.5347L132.995 71.5327L132.679 70.584ZM121.095 70.776L121.389 69.8202L120.65 69.5928L120.244 70.2509L121.095 70.776ZM116.999 76.984L117.818 77.5584L117.818 77.5575L116.999 76.984ZM112.583 81.976L113.17 82.7859L113.17 82.7859L112.583 81.976ZM104.199 81.272L103.387 81.8556L103.393 81.8639L103.399 81.872L104.199 81.272ZM102.343 74.808L101.347 74.8934L101.347 74.8946L102.343 74.808ZM101.575 56.888L100.575 56.8577L100.575 56.8729V56.888H101.575ZM102.727 53.944L102.12 53.1496L102.12 53.1496L102.727 53.944ZM108.423 53.88L107.716 54.5871L107.745 54.6165L107.777 54.6434L108.423 53.88ZM110.151 75.448L109.154 75.5239L109.372 78.3923L110.98 76.007L110.151 75.448ZM115.911 66.36L116.781 66.8526L117.048 66.3814L116.799 65.9006L115.911 66.36ZM115.911 57.72L116.816 58.1444L116.816 58.1444L115.911 57.72ZM118.535 54.392L117.925 53.5994L117.925 53.5994L118.535 54.392ZM125.319 54.456L124.56 55.1068L124.568 55.116L124.576 55.125L125.319 54.456ZM124.935 64.824L124.011 64.4416L123.405 65.9059L124.988 65.8226L124.935 64.824ZM131.399 63.864L131.217 62.8807L131.207 62.8826L131.197 62.8846L131.399 63.864ZM133.443 64.4927C133.408 64.5043 133.412 64.4981 133.483 64.491C133.546 64.4847 133.639 64.48 133.767 64.48V62.48C133.459 62.48 133.104 62.4975 132.811 62.5953L133.443 64.4927ZM133.767 64.48C134.161 64.48 134.34 64.5973 134.458 64.7447L136.02 63.4953C135.455 62.7894 134.653 62.48 133.767 62.48V64.48ZM134.458 64.7447C134.617 64.9435 134.751 65.2752 134.751 65.848H136.751C136.751 64.9701 136.544 64.1498 136.02 63.4953L134.458 64.7447ZM134.751 65.848C134.751 67.0549 134.516 67.8824 134.151 68.4293L135.815 69.5387C136.474 68.5496 136.751 67.2865 136.751 65.848H134.751ZM134.166 68.4073C133.802 68.9236 133.229 69.3466 132.363 69.6353L132.995 71.5327C134.177 71.1388 135.14 70.4951 135.8 69.5607L134.166 68.4073ZM132.369 69.6333C130.514 70.2383 128.528 70.544 126.407 70.544V72.544C128.723 72.544 130.919 72.2097 132.989 71.5347L132.369 69.6333ZM126.407 70.544C124.622 70.544 122.951 70.3007 121.389 69.8202L120.801 71.7318C122.567 72.2753 124.438 72.544 126.407 72.544V70.544ZM120.244 70.2509C119.018 72.2382 117.663 74.2914 116.18 76.4105L117.818 77.5575C119.321 75.4099 120.698 73.3245 121.946 71.3011L120.244 70.2509ZM116.18 76.4096C114.489 78.8197 113.095 80.3709 111.996 81.1661L113.17 82.7859C114.546 81.7891 116.096 80.0123 117.818 77.5584L116.18 76.4096ZM111.996 81.1661C110.936 81.9342 109.735 82.32 108.359 82.32V84.32C110.141 84.32 111.756 83.8098 113.17 82.7859L111.996 81.1661ZM108.359 82.32C106.915 82.32 105.829 81.7782 104.999 80.672L103.399 81.872C104.617 83.4965 106.304 84.32 108.359 84.32V82.32ZM105.011 80.6884C104.187 79.5421 103.59 77.6041 103.339 74.7214L101.347 74.8946C101.608 77.8999 102.248 80.2713 103.387 81.8556L105.011 80.6884ZM103.339 74.7226C102.829 68.7688 102.575 63.5718 102.575 59.128H100.575C100.575 63.6442 100.833 68.9005 101.347 74.8934L103.339 74.7226ZM102.575 59.128V56.888H100.575V59.128H102.575ZM102.575 56.9183C102.613 55.6461 102.954 55.0294 103.334 54.7384L102.12 53.1496C101.049 53.968 100.622 55.3139 100.575 56.8577L102.575 56.9183ZM103.334 54.7384C103.809 54.3753 104.64 54.112 105.991 54.112V52.112C104.441 52.112 103.095 52.4034 102.12 53.1496L103.334 54.7384ZM105.991 54.112C106.973 54.112 107.471 54.3419 107.716 54.5871L109.13 53.1729C108.351 52.3941 107.227 52.112 105.991 52.112V54.112ZM107.777 54.6434C108.003 54.8347 108.255 55.2833 108.255 56.312H110.255C110.255 55.0367 109.952 53.8639 109.069 53.1166L107.777 54.6434ZM108.255 56.312C108.255 61.2544 108.556 67.6611 109.154 75.5239L111.148 75.3721C110.552 67.5336 110.255 61.1829 110.255 56.312H108.255ZM110.98 76.007C113.546 72.2016 115.482 69.1474 116.781 66.8526L115.041 65.8674C113.78 68.0953 111.876 71.0997 109.322 74.889L110.98 76.007ZM116.799 65.9006C116.247 64.8337 115.951 63.5263 115.951 61.944H113.951C113.951 63.7751 114.295 65.4116 115.023 66.8194L116.799 65.9006ZM115.951 61.944C115.951 60.6459 116.236 59.3823 116.816 58.1444L115.006 57.2956C114.306 58.7883 113.951 60.3408 113.951 61.944H115.951ZM116.816 58.1444C117.394 56.9122 118.172 55.9332 119.145 55.1846L117.925 53.5994C116.68 54.5575 115.708 55.7971 115.006 57.2956L116.816 58.1444ZM119.145 55.1846C120.078 54.4666 121.122 54.112 122.311 54.112V52.112C120.684 52.112 119.211 52.6107 117.925 53.5994L119.145 55.1846ZM122.311 54.112C123.273 54.112 123.992 54.4444 124.56 55.1068L126.078 53.8052C125.11 52.6756 123.824 52.112 122.311 52.112V54.112ZM124.576 55.125C125.117 55.7269 125.471 56.7055 125.471 58.232H127.471C127.471 56.4305 127.057 54.8917 126.062 53.787L124.576 55.125ZM125.471 58.232C125.471 59.9799 125.003 62.0437 124.011 64.4416L125.859 65.2064C126.915 62.655 127.471 60.3241 127.471 58.232H125.471ZM124.988 65.8226C126.682 65.7335 128.892 65.4023 131.601 64.8434L131.197 62.8846C128.53 63.435 126.431 63.7439 124.882 63.8254L124.988 65.8226ZM131.581 64.8473L133.309 64.5273L132.945 62.5607L131.217 62.8807L131.581 64.8473ZM155.733 69.496L154.869 69.9999L154.884 70.0258L154.901 70.0507L155.733 69.496ZM155.029 75.576L154.272 74.9224L154.262 74.934L154.252 74.946L155.029 75.576ZM149.013 81.144L148.458 80.3119L148.451 80.3171L149.013 81.144ZM133.333 78.2L132.448 78.6649L132.452 78.6734L133.333 78.2ZM132.629 47.16L131.649 46.9591L131.648 46.9651L132.629 47.16ZM138.581 30.008L137.706 29.5237L137.703 29.5297L138.581 30.008ZM152.789 25.72L151.932 26.2345L151.938 26.2458L151.945 26.2569L152.789 25.72ZM150.357 51.512L149.435 51.1245L149.435 51.1245L150.357 51.512ZM138.901 71.416L138.095 70.8244L137.844 71.1663L137.915 71.5843L138.901 71.416ZM140.373 75.192L139.626 75.8564L139.635 75.867L139.645 75.8774L140.373 75.192ZM147.669 74.808L148.265 75.6111L148.273 75.605L148.281 75.5987L147.669 74.808ZM152.725 69.624L151.966 68.9732L151.96 68.9799L152.725 69.624ZM143.253 34.488L142.309 34.1582L142.309 34.1582L143.253 34.488ZM139.989 47.672L139.005 47.4959L139.005 47.4959L139.989 47.672ZM138.453 62.776L137.453 62.7583L137.388 66.4591L139.308 63.2948L138.453 62.776ZM145.685 47.8L146.626 48.1379L146.627 48.1353L145.685 47.8ZM154.453 69.728C154.623 69.728 154.735 69.7694 154.869 69.9999L156.597 68.9921C156.134 68.1986 155.392 67.728 154.453 67.728V69.728ZM154.901 70.0507C155.093 70.3394 155.245 70.824 155.245 71.608H157.245C157.245 70.6 157.055 69.6766 156.565 68.9413L154.901 70.0507ZM155.245 71.608C155.245 73.1649 154.876 74.2236 154.272 74.9224L155.786 76.2296C156.804 75.051 157.245 73.4644 157.245 71.608H155.245ZM154.252 74.946C152.474 77.1379 150.542 78.923 148.458 80.3119L149.568 81.9761C151.836 80.4637 153.915 78.5367 155.806 76.206L154.252 74.946ZM148.451 80.3171C146.493 81.6482 144.259 82.32 141.717 82.32V84.32C144.636 84.32 147.266 83.5411 149.575 81.9709L148.451 80.3171ZM141.717 82.32C139.996 82.32 138.545 81.9307 137.326 81.1866C136.106 80.4414 135.063 79.3057 134.214 77.7266L132.452 78.6734C133.438 80.5076 134.709 81.9319 136.284 82.8934C137.86 83.856 139.683 84.32 141.717 84.32V82.32ZM134.218 77.7352C132.526 74.5115 131.645 70.2706 131.645 64.952H129.645C129.645 70.4708 130.556 75.0619 132.448 78.6648L134.218 77.7352ZM131.645 64.952C131.645 59.8283 132.296 53.9649 133.61 47.3549L131.648 46.9651C130.316 53.6671 129.645 59.665 129.645 64.952H131.645ZM133.609 47.3609C134.959 40.7789 136.914 35.1596 139.459 30.4863L137.703 29.5297C135.043 34.4137 133.03 40.2291 131.649 46.9591L133.609 47.3609ZM139.456 30.4923C142.023 25.8557 144.891 23.84 147.989 23.84V21.84C143.834 21.84 140.43 24.603 137.706 29.5237L139.456 30.4923ZM147.989 23.84C149.648 23.84 150.94 24.5818 151.932 26.2345L153.646 25.2055C152.334 23.0182 150.426 21.84 147.989 21.84V23.84ZM151.945 26.2569C152.994 27.9049 153.581 30.3943 153.581 33.848H155.581C155.581 30.2191 154.973 27.2897 153.633 25.1831L151.945 26.2569ZM153.581 33.848C153.581 38.7479 152.22 44.4997 149.435 51.1245L151.279 51.8995C154.126 45.127 155.581 39.1027 155.581 33.848H153.581ZM149.435 51.1245C146.653 57.7427 142.875 64.3095 138.095 70.8244L139.707 72.0076C144.569 65.3812 148.429 58.6787 151.279 51.8995L149.435 51.1245ZM137.915 71.5843C138.225 73.4002 138.758 74.8802 139.626 75.8564L141.12 74.5276C140.623 73.9678 140.174 72.9305 139.887 71.2477L137.915 71.5843ZM139.645 75.8774C140.539 76.8274 141.711 77.28 143.061 77.28V75.28C142.193 75.28 141.572 75.0073 141.101 74.5066L139.645 75.8774ZM143.061 77.28C145.011 77.28 146.759 76.7285 148.265 75.6111L147.073 74.0049C145.934 74.8502 144.61 75.28 143.061 75.28V77.28ZM148.281 75.5987C149.689 74.5085 151.429 72.7151 153.49 70.2681L151.96 68.9799C149.925 71.3969 148.294 73.0595 147.057 74.0173L148.281 75.5987ZM153.484 70.2748C153.854 69.8437 154.171 69.728 154.453 69.728V67.728C153.455 67.728 152.62 68.2096 151.966 68.9732L153.484 70.2748ZM146.581 28.176C146.02 28.176 145.546 28.4307 145.175 28.7449C144.805 29.0581 144.472 29.4839 144.166 29.9731C143.552 30.9528 142.936 32.3632 142.309 34.1582L144.197 34.8178C144.807 33.0714 145.365 31.8259 145.86 31.0349C146.109 30.6387 146.314 30.4006 146.467 30.2711C146.619 30.1426 146.651 30.176 146.581 30.176V28.176ZM142.309 34.1582C141.049 37.7656 139.949 42.2155 139.005 47.4959L140.973 47.8481C141.906 42.6325 142.983 38.2931 144.197 34.8178L142.309 34.1582ZM139.005 47.4959C138.058 52.7908 137.54 57.8786 137.453 62.7583L139.453 62.7937C139.537 58.0307 140.043 53.0492 140.973 47.8481L139.005 47.4959ZM139.308 63.2948C142.369 58.2512 144.809 53.1989 146.626 48.1379L144.744 47.4621C142.977 52.3851 140.596 57.3168 137.598 62.2572L139.308 63.2948ZM146.627 48.1353C148.447 43.0228 149.373 38.3207 149.373 34.04H147.373C147.373 38.0366 146.507 42.5079 144.743 47.4647L146.627 48.1353ZM149.373 34.04C149.373 32.3854 149.224 31.0261 148.863 30.0463C148.681 29.5503 148.42 29.086 148.036 28.7385C147.63 28.3715 147.131 28.176 146.581 28.176V30.176C146.629 30.176 146.652 30.1831 146.694 30.2215C146.758 30.2793 146.871 30.423 146.987 30.7377C147.223 31.3792 147.373 32.4519 147.373 34.04H149.373ZM175.52 53.56L174.965 54.392L174.965 54.3921L175.52 53.56ZM174.432 65.784L173.447 65.6098L173.445 65.623L174.432 65.784ZM172.704 76.472L171.716 76.3199L171.714 76.3295L172.704 76.472ZM166.176 102.52L165.258 102.122L166.176 102.52ZM149.792 110.072L150.499 109.365L150.493 109.359L150.488 109.354L149.792 110.072ZM149.088 98.68L148.176 98.2704L148.172 98.2782L148.169 98.2861L149.088 98.68ZM154.208 91.448L153.478 90.7644L153.473 90.7704L153.467 90.7765L154.208 91.448ZM164.832 82.168L165.44 82.9617L165.77 82.7091L165.824 82.2973L164.832 82.168ZM165.024 80.696L164.041 80.5101L164.036 80.5383L164.032 80.5667L165.024 80.696ZM166.048 73.912L167.04 74.0413L165.084 73.6444L166.048 73.912ZM162.464 80.952L163.181 81.6494L163.19 81.6397L162.464 80.952ZM152.864 80.696L152.032 81.2507L152.04 81.2622L152.048 81.2735L152.864 80.696ZM151.712 65.272L152.699 65.4312L152.7 65.4288L151.712 65.272ZM153.824 56.76L152.875 56.4438L152.874 56.4478L153.824 56.76ZM155.616 54.008L156.201 54.8187L156.201 54.8187L155.616 54.008ZM161.184 53.624L160.525 54.3766L160.547 54.3956L160.57 54.4134L161.184 53.624ZM161.056 58.424L162.021 58.6849L162.025 58.6708L162.029 58.6566L161.056 58.424ZM160.032 62.712L159.051 62.5159L159.051 62.5205L160.032 62.712ZM159.136 67.768L160.123 67.9281L160.124 67.924L159.136 67.768ZM162.464 72.184L161.67 71.5756L161.664 71.584L161.658 71.5926L162.464 72.184ZM165.536 66.36L164.616 65.9679L164.611 65.9808L165.536 66.36ZM168.736 56.76L169.702 57.0204L169.702 57.0177L168.736 56.76ZM170.272 54.008L169.665 53.2136L169.653 53.2226L169.641 53.2319L170.272 54.008ZM163.36 89.848L164.335 90.0718L165.006 87.1503L162.715 89.0839L163.36 89.848ZM156.192 97.4L155.358 96.8489L155.352 96.858L155.346 96.8672L156.192 97.4ZM154.4 105.208L153.522 105.687L153.538 105.716L153.556 105.745L154.4 105.208ZM173.472 54.176C174.434 54.176 174.849 54.3143 174.965 54.392L176.075 52.728C175.423 52.2937 174.473 52.176 173.472 52.176V54.176ZM174.965 54.3921C174.99 54.4088 175.096 54.4668 175.096 54.84H177.096C177.096 54.0185 176.818 53.2232 176.075 52.7279L174.965 54.3921ZM175.096 54.84C175.096 55.2607 174.972 56.347 174.691 58.1937C174.416 60.006 174.001 62.477 173.447 65.6098L175.417 65.9582C175.972 62.819 176.39 60.33 176.669 58.4943C176.943 56.693 177.096 55.4433 177.096 54.84H175.096ZM173.445 65.623C172.464 71.6365 171.887 75.2049 171.716 76.3199L173.692 76.6241C173.862 75.5204 174.437 71.9635 175.419 65.945L173.445 65.623ZM171.714 76.3295C170.142 87.252 167.982 95.8371 165.258 102.122L167.094 102.918C169.917 96.4029 172.109 87.6226 173.694 76.6145L171.714 76.3295ZM165.258 102.122C162.551 108.371 159.123 111.12 155.104 111.12V113.12C160.301 113.12 164.255 109.469 167.094 102.918L165.258 102.122ZM155.104 111.12C153.156 111.12 151.652 110.518 150.499 109.365L149.085 110.779C150.662 112.356 152.7 113.12 155.104 113.12V111.12ZM150.488 109.354C149.346 108.247 148.744 106.772 148.744 104.824H146.744C146.744 107.228 147.508 109.251 149.096 110.79L150.488 109.354ZM148.744 104.824C148.744 102.971 149.157 101.057 150.007 99.0739L148.169 98.2861C147.227 100.485 146.744 102.666 146.744 104.824H148.744ZM150 99.0896C150.878 97.1348 152.507 94.8136 154.949 92.1195L153.467 90.7765C150.959 93.5437 149.175 96.0438 148.176 98.2704L150 99.0896ZM154.938 92.1316C157.403 89.4992 160.897 86.4434 165.44 82.9617L164.224 81.3743C159.636 84.89 156.048 88.0208 153.478 90.7644L154.938 92.1316ZM165.824 82.2973L166.016 80.8253L164.032 80.5667L163.84 82.0387L165.824 82.2973ZM166.007 80.8819C166.311 79.275 166.655 76.9913 167.04 74.0413L165.056 73.7827C164.673 76.7207 164.335 78.9597 164.041 80.5101L166.007 80.8819ZM165.084 73.6444C164.257 76.622 163.124 78.8013 161.738 80.2643L163.19 81.6397C164.876 79.8601 166.132 77.346 167.012 74.1796L165.084 73.6444ZM161.747 80.2546C160.342 81.6988 158.964 82.32 157.6 82.32V84.32C159.649 84.32 161.514 83.3625 163.181 81.6494L161.747 80.2546ZM157.6 82.32C156.046 82.32 154.756 81.6386 153.68 80.1185L152.048 81.2735C153.447 83.2521 155.314 84.32 157.6 84.32V82.32ZM153.696 80.1413C152.634 78.5477 152.072 76.5333 152.072 74.04H150.072C150.072 76.8374 150.705 79.2603 152.032 81.2507L153.696 80.1413ZM152.072 74.04C152.072 70.8834 152.283 68.015 152.699 65.4312L150.725 65.1128C150.288 67.8197 150.072 70.7966 150.072 74.04H152.072ZM152.7 65.4288C153.117 62.8008 153.807 60.0157 154.774 57.0722L152.874 56.4478C151.878 59.4776 151.161 62.3672 150.724 65.1152L152.7 65.4288ZM154.773 57.0762C155.16 55.9137 155.662 55.2085 156.201 54.8187L155.031 53.1973C154.034 53.9168 153.341 55.0463 152.875 56.4438L154.773 57.0762ZM156.201 54.8187C156.712 54.4497 157.669 54.176 159.264 54.176V52.176C157.531 52.176 156.056 52.457 155.031 53.1973L156.201 54.8187ZM159.264 54.176C159.686 54.176 159.999 54.2102 160.221 54.2618C160.33 54.2872 160.406 54.3145 160.457 54.3377C160.482 54.3491 160.499 54.3588 160.51 54.3658C160.521 54.3727 160.526 54.3767 160.525 54.3766L161.843 52.8714C161.204 52.3126 160.228 52.176 159.264 52.176V54.176ZM160.57 54.4134C160.655 54.4794 160.76 54.6013 160.76 54.968H162.76C162.76 54.14 162.481 53.366 161.798 52.8346L160.57 54.4134ZM160.76 54.968C160.76 54.9601 160.76 54.9759 160.755 55.0268C160.75 55.074 160.741 55.1379 160.728 55.2208C160.702 55.3868 160.661 55.608 160.604 55.8884C160.49 56.4483 160.317 57.2145 160.083 58.1914L162.029 58.6566C162.264 57.6708 162.443 56.8797 162.564 56.2876C162.676 55.7386 162.76 55.2595 162.76 54.968H160.76ZM160.091 58.1631C159.66 59.7581 159.313 61.2095 159.051 62.5159L161.013 62.9081C161.263 61.6545 161.599 60.2472 162.021 58.6849L160.091 58.1631ZM159.051 62.5205C158.707 64.2806 158.406 65.9779 158.148 67.612L160.124 67.924C160.378 66.3155 160.674 64.642 161.013 62.9035L159.051 62.5205ZM158.149 67.6079C157.889 69.2136 157.752 70.5733 157.752 71.672H159.752C159.752 70.7227 159.871 69.4797 160.123 67.9281L158.149 67.6079ZM157.752 71.672C157.752 72.542 157.867 73.3532 158.213 73.9797C158.394 74.308 158.648 74.6012 158.992 74.8083C159.336 75.0164 159.716 75.104 160.096 75.104V73.104C160.028 73.104 160.016 73.0903 160.024 73.0957C160.032 73.1001 160.006 73.0893 159.963 73.0123C159.861 72.8281 159.752 72.4233 159.752 71.672H157.752ZM160.096 75.104C160.746 75.104 161.323 74.7856 161.798 74.4008C162.285 74.0054 162.775 73.4504 163.27 72.7754L161.658 71.5926C161.214 72.1976 160.84 72.6026 160.538 72.8472C160.223 73.1024 160.086 73.104 160.096 73.104V75.104ZM163.258 72.7924C164.318 71.4089 165.382 69.3727 166.461 66.7392L164.611 65.9808C163.557 68.5526 162.572 70.3991 161.67 71.5756L163.258 72.7924ZM166.456 66.7521C167.589 64.0938 168.67 60.8467 169.702 57.0204L167.77 56.4996C166.754 60.268 165.702 63.4209 164.616 65.9679L166.456 66.7521ZM169.702 57.0177C170.015 55.844 170.448 55.1537 170.903 54.7841L169.641 53.2319C168.731 53.9716 168.139 55.116 167.77 56.5023L169.702 57.0177ZM170.879 54.8024C171.358 54.4361 172.171 54.176 173.472 54.176V52.176C171.957 52.176 170.636 52.4706 169.665 53.2136L170.879 54.8024ZM155.808 106.912C156.739 106.912 157.549 106.377 158.223 105.679C158.912 104.965 159.593 103.946 160.274 102.671L158.51 101.729C157.869 102.929 157.29 103.766 156.785 104.289C156.264 104.828 155.943 104.912 155.808 104.912V106.912ZM160.274 102.671C161.663 100.072 163.009 95.8448 164.335 90.0718L162.385 89.6242C161.066 95.3712 159.766 99.3783 158.51 101.729L160.274 102.671ZM162.715 89.0839C159.394 91.8872 156.925 94.4754 155.358 96.8489L157.026 97.9511C158.446 95.802 160.755 93.3554 164.005 90.6121L162.715 89.0839ZM155.346 96.8672C153.849 99.2443 153.016 101.44 153.016 103.416H155.016C155.016 101.979 155.634 100.164 157.038 97.9328L155.346 96.8672ZM153.016 103.416C153.016 104.252 153.162 105.028 153.522 105.687L155.278 104.729C155.126 104.45 155.016 104.031 155.016 103.416H153.016ZM153.556 105.745C154.069 106.55 154.887 106.912 155.808 106.912V104.912C155.449 104.912 155.329 104.804 155.244 104.671L153.556 105.745Z" fill="white"/>
</svg>
