<svg width="179" height="95" viewBox="0 0 179 95" fill="none" xmlns="http://www.w3.org/2000/svg">
<path fill-rule="evenodd" clip-rule="evenodd" d="M3.51988 20.7598C3.09322 20.1198 2.87988 19.3518 2.87988 18.4558C2.87988 17.4318 3.05055 16.5998 3.39188 15.9598C3.73322 15.2772 4.30922 14.6585 5.11988 14.1038C8.06388 12.0985 11.5199 10.5838 15.4879 9.55984C19.4559 8.49318 23.2746 7.95985 26.9439 7.95985C32.1492 7.95985 36.6506 8.87718 40.4479 10.7118C44.2452 12.5038 47.1679 15.1492 49.2159 18.6478C51.2639 22.1465 52.2879 26.3705 52.2879 31.3198C52.2879 37.7625 51.0079 43.3945 48.4479 48.2158C45.8879 52.9945 42.1545 56.7065 37.2479 59.3518C32.3412 61.9972 26.4959 63.3198 19.7119 63.3198C17.2372 63.3198 14.4425 63.1065 11.3279 62.6798C9.62122 62.4665 8.44788 62.0185 7.80788 61.3358C7.16788 60.6532 6.89055 59.5438 6.97588 58.0078C7.27455 53.7838 7.97855 48.5785 9.08788 42.3918C10.1972 36.1625 11.5412 30.1678 13.1199 24.4078C13.4186 23.3412 14.0159 22.5945 14.9119 22.1678C15.8079 21.7412 16.9812 21.5278 18.4319 21.5278C21.0346 21.5278 22.3359 22.2532 22.3359 23.7038C22.3359 24.3012 22.2079 24.9838 21.9519 25.7518C20.8426 29.1652 19.7332 33.7518 18.6239 39.5118C17.5145 45.2292 16.7252 50.6905 16.2559 55.8958C16.4589 55.9161 16.6662 55.9348 16.8778 55.9519C17.3171 55.9874 17.7749 56.0159 18.2512 56.0375C18.992 56.0711 19.7776 56.0878 20.6079 56.0878C28.0745 56.0878 33.6425 53.8265 37.3119 49.3038C41.0239 44.7812 42.8799 38.7438 42.8799 31.1918C42.8799 26.1145 41.4292 22.1892 38.5279 19.4158C35.6266 16.6425 31.5306 15.2558 26.2399 15.2558C22.8265 15.2558 19.4346 15.7892 16.0639 16.8558C12.7359 17.9225 9.72788 19.3305 7.03988 21.0798C6.48522 21.4638 5.88788 21.6558 5.24788 21.6558C4.52255 21.6558 3.94655 21.3572 3.51988 20.7598ZM8.15185 22.7424C10.6717 21.1054 13.5075 19.7757 16.6707 18.7616C19.8521 17.7552 23.0397 17.2558 26.2399 17.2558C31.1845 17.2558 34.7231 18.5456 37.1459 20.8616C39.5539 23.1633 40.8799 26.5072 40.8799 31.1918C40.8799 38.4177 39.108 43.963 35.7659 48.035L35.7588 48.0438C32.5718 51.9718 27.6561 54.0878 20.6079 54.0878C19.8427 54.0878 19.1224 54.0731 18.446 54.0441C18.9201 49.5261 19.6333 44.8092 20.5873 39.8928L20.5878 39.8901C21.6892 34.1713 22.7795 29.6776 23.8517 26.3769C24.1518 25.4749 24.3359 24.5749 24.3359 23.7038C24.3359 23.0328 24.1821 22.3502 23.8084 21.7253C23.4363 21.1031 22.9113 20.6469 22.3336 20.3249C21.2386 19.7146 19.8535 19.5278 18.4319 19.5278C16.8103 19.5278 15.3113 19.7624 14.052 20.3621C12.5703 21.0677 11.6281 22.3179 11.194 23.8686L11.191 23.8792C9.59544 29.7009 8.23839 35.7548 7.11905 42.0401C6.00267 48.2663 5.28631 53.547 4.98086 57.8668L4.9798 57.8818L4.97896 57.8969C4.88201 59.642 5.15432 61.4296 6.34881 62.7037C7.48101 63.9114 9.24439 64.4336 11.0677 64.6629C14.2451 65.0977 17.1291 65.3198 19.7119 65.3198C26.756 65.3198 32.9418 63.9455 38.197 61.1123C43.4388 58.2863 47.46 54.2951 50.2109 49.1603L50.2143 49.1538C52.9531 43.9957 54.2879 38.0307 54.2879 31.3198C54.2879 26.0936 53.2051 21.5037 50.9419 17.6375C48.6841 13.7804 45.4539 10.8646 41.3097 8.90705C37.1869 6.91693 32.3778 5.95985 26.9439 5.95985C23.0828 5.95985 19.0924 6.52071 14.9784 7.6258C10.824 8.69892 7.15263 10.2993 3.99395 12.4509L3.99051 12.4532C2.98525 13.141 2.14624 13.9912 1.61472 15.0422C1.07784 16.0611 0.879883 17.2401 0.879883 18.4558C0.879883 19.68 1.17582 20.8493 1.85578 21.8692L1.87367 21.8961L1.89242 21.9223C2.68912 23.0377 3.86744 23.6558 5.24788 23.6558C6.30655 23.6558 7.28824 23.3332 8.15185 22.7424ZM55.1699 61.4824L55.1622 61.4621C54.3887 59.3993 54.0749 56.363 54.0749 52.5678C54.0749 46.8308 54.8915 41.359 56.5342 36.1623C57.0171 34.6092 57.8643 33.2728 59.1991 32.4014C60.5419 31.5098 62.2158 31.1758 64.0109 31.1758C64.9041 31.1758 66.0059 31.2642 66.8629 31.7998C68.0396 32.5353 68.3149 33.7841 68.3149 34.7118C68.3149 35.2775 68.1943 36.0089 68.0328 36.7838C68.0243 36.8247 68.0156 36.8661 68.0067 36.908C69.4733 35.1923 70.9774 33.8413 72.5309 32.9251L72.5404 32.9195L72.5499 32.914C74.4451 31.8243 76.3489 31.1758 78.2189 31.1758C79.9138 31.1758 81.5524 31.6009 82.7531 32.8016C83.9538 34.0023 84.3789 35.6409 84.3789 37.3358C84.3789 38.1089 84.1438 39.6523 83.7713 41.7221L83.7678 41.7411L83.764 41.7601C83.5958 42.6013 83.4733 43.2665 83.3938 43.7638C83.354 44.0125 83.3268 44.2077 83.31 44.3549C83.2918 44.5136 83.2909 44.5732 83.2909 44.5678C83.2909 44.6174 83.2917 44.6635 83.2933 44.7063C83.4306 44.6523 83.603 44.5704 83.8132 44.4469C84.3236 41.5145 84.955 38.7666 85.7101 36.2057C86.1338 34.7045 86.7929 33.2826 87.9185 32.3821C89.0899 31.445 90.6728 31.1758 92.2399 31.1758C93.4869 31.1758 94.772 31.3722 95.7973 32.0557C96.9657 32.8347 97.5039 34.0439 97.5039 35.3518C97.5039 36.6693 97.0425 39.3683 96.2457 43.1846L96.2438 43.1934L96.2419 43.2022C95.2113 47.9257 94.7519 50.8974 94.7519 52.3118C94.7519 53.352 94.8838 53.9573 95.0114 54.2696C95.0628 54.254 95.1625 54.2171 95.3166 54.1315C95.6111 53.9679 96.0089 53.6792 96.5131 53.2123C97.3752 52.4141 98.514 51.1964 99.9405 49.5313C99.6972 45.7197 99.5749 42.2511 99.5749 39.1278V36.8576L99.5758 36.8273C99.6267 35.1476 100.097 33.4371 101.512 32.3551C102.738 31.4173 104.342 31.1118 105.991 31.1118C107.329 31.1118 108.738 31.4088 109.778 32.408C110.938 33.4327 111.255 34.938 111.255 36.3118C111.255 39.8664 111.414 44.2248 111.735 49.3934C112.48 48.2215 113.125 47.17 113.672 46.238C113.178 44.9243 112.951 43.4818 112.951 41.9438C112.951 40.1881 113.34 38.4912 114.1 36.871C114.865 35.2394 115.934 33.8695 117.315 32.8066C118.777 31.6826 120.465 31.1118 122.311 31.1118C124.092 31.1118 125.655 31.7851 126.822 33.1364C128.03 34.4904 128.471 36.3015 128.471 38.2318C128.471 39.5804 128.258 41.0001 127.856 42.483C128.126 42.4405 128.406 42.3942 128.696 42.344C128.878 37.6414 129.539 32.4475 130.667 26.77L130.67 26.758C132.065 19.954 134.107 14.0407 136.824 9.05124L136.831 9.03919C139.634 3.97642 143.306 0.839844 147.989 0.839844C150.806 0.839844 153.018 2.22771 154.49 4.66844C155.967 7.00208 156.581 10.1432 156.581 13.8478C156.581 19.28 155.079 25.4404 152.201 32.2869C149.42 38.9017 145.694 45.4336 141.034 51.8833C141.287 52.9508 141.597 53.5466 141.849 53.842C142.107 54.1062 142.45 54.2798 143.061 54.2798C144.402 54.2798 145.509 53.9149 146.461 53.2134C147.189 52.6479 148.085 51.8025 149.154 50.6525C149.255 48.6442 149.449 46.7439 149.737 44.9534C150.183 42.1467 150.915 39.2066 151.924 36.1355L151.926 36.1274C152.431 34.6126 153.22 33.2708 154.445 32.3865C155.727 31.4605 157.461 31.1758 159.264 31.1758C160.237 31.1758 161.522 31.2957 162.454 32.0788C163.405 32.8412 163.76 33.9247 163.76 34.9678C163.76 35.3802 163.65 35.965 163.544 36.4871C163.42 37.0952 163.238 37.8988 163.001 38.889L162.994 38.9174L162.987 38.9457C162.569 40.49 162.239 41.8739 161.994 43.1002C161.657 44.826 161.363 46.4858 161.111 48.0798L161.11 48.088C160.912 49.3114 160.801 50.3159 160.765 51.117C160.793 51.0795 160.822 51.0409 160.851 51.0011L160.864 50.9839L160.877 50.967C161.699 49.8941 162.644 48.1424 163.685 45.6014L163.691 45.5885L163.696 45.5757C164.758 43.0851 165.796 39.9803 166.804 36.2424C167.202 34.7506 167.873 33.38 169.011 32.4556L169.034 32.437L169.057 32.4191C170.275 31.4877 171.849 31.1758 173.472 31.1758C174.492 31.1758 175.711 31.2832 176.629 31.8957C177.731 32.6302 178.096 33.7942 178.096 34.8398C178.096 35.5344 177.928 36.8658 177.657 38.6445C177.377 40.4893 176.958 42.9832 176.404 46.1196C175.425 52.1168 174.852 55.6604 174.682 56.7674C173.091 67.8134 170.883 76.6878 168.011 83.3151C165.107 90.0177 160.89 94.1199 155.104 94.1199C152.476 94.1199 150.176 93.2788 148.388 91.4968C146.585 89.7433 145.744 87.4501 145.744 84.8239C145.744 82.5136 146.261 80.1983 147.25 77.892L147.256 77.8763L147.263 77.8607C148.324 75.4982 150.185 72.9086 152.726 70.1048L152.737 70.0927L152.748 70.0807C154.138 68.5966 155.813 67.0088 157.767 65.318C157.711 65.3192 157.656 65.3198 157.6 65.3198C154.994 65.3198 152.868 64.1021 151.313 61.965C150.925 62.2565 150.53 62.5359 150.13 62.8031C147.647 64.4892 144.821 65.3198 141.717 65.3198C139.527 65.3198 137.518 64.8185 135.763 63.7467C134.011 62.677 132.626 61.1084 131.571 59.1467L131.567 59.1381L131.562 59.1295C130.654 57.4001 129.968 55.4681 129.489 53.3452C128.484 53.478 127.456 53.5438 126.407 53.5438C124.891 53.5438 123.424 53.3916 122.011 53.0823C120.967 54.727 119.842 56.4098 118.637 58.1308L118.636 58.1327C116.899 60.6085 115.272 62.4981 113.756 63.5957C112.165 64.7475 110.344 65.3198 108.359 65.3198C105.999 65.3198 104.012 64.3554 102.599 62.4718L102.587 62.4556L102.575 62.4391C102.345 62.1187 102.134 61.7736 101.943 61.4054C99.0096 63.9032 96.0101 65.3198 92.9439 65.3198C89.6385 65.3198 86.9101 64.1079 85.1887 61.4684L85.1802 61.4555L85.172 61.4424C84.1469 59.8163 83.5136 57.8982 83.2144 55.7404C82.3197 55.9398 81.4003 56.0398 80.4589 56.0398C77.8711 56.0398 75.5722 55.3769 73.8866 53.7515L73.8735 53.7389L73.8607 53.7261C72.2588 52.1242 71.5469 50.0169 71.5469 47.6398C71.5469 47.5315 71.5484 47.4231 71.5514 47.3149C70.8457 48.4426 70.1144 49.8559 69.364 51.5757C68.3888 53.8104 67.5934 56.1734 66.9796 58.667C66.5026 60.7017 65.8634 62.4919 64.8733 63.616C63.7489 64.8987 62.1192 65.3198 60.4909 65.3198C59.3102 65.3198 58.1852 65.0016 57.2204 64.287C56.2732 63.5853 55.6187 62.6045 55.1779 61.5026L55.1699 61.4824ZM63.3709 62.2958C64.0109 61.5705 64.5655 60.2052 65.0349 58.1998C65.6749 55.5972 66.5069 53.1225 67.5309 50.7758C68.5549 48.4292 69.5789 46.5518 70.6029 45.1438C71.6695 43.6932 72.5229 42.9678 73.1629 42.9678C73.6322 42.9678 73.8669 43.3092 73.8669 43.9918C73.8669 44.2905 73.8242 44.8665 73.7389 45.7198C73.6109 46.3598 73.5469 46.9998 73.5469 47.6398C73.5469 49.6025 74.1229 51.1598 75.2749 52.3118C76.4696 53.4638 78.1976 54.0398 80.4589 54.0398C81.343 54.0398 82.2012 53.936 83.0334 53.7283C83.7101 53.5594 84.3696 53.3218 85.0119 53.0156C85.0253 53.7576 85.0723 54.4648 85.1529 55.1373C85.4021 57.2157 85.9725 58.9619 86.8639 60.3758C88.1439 62.3385 90.1706 63.3198 92.9439 63.3198C95.5412 63.3198 98.2774 62.0265 101.153 59.4399C101.695 58.9517 102.243 58.4175 102.795 57.8372C102.98 58.6504 103.21 59.3683 103.482 59.991C103.695 60.4757 103.934 60.9026 104.199 61.2718C105.223 62.6372 106.61 63.3198 108.359 63.3198C109.938 63.3198 111.346 62.8718 112.583 61.9758C113.82 61.0798 115.292 59.4158 116.999 56.9838C118.492 54.8505 119.858 52.7812 121.095 50.7758C122.759 51.2878 124.53 51.5438 126.407 51.5438C127.331 51.5438 128.234 51.4883 129.114 51.3771C129.783 51.2926 130.44 51.1759 131.083 51.0271C131.19 51.7039 131.315 52.3591 131.46 52.9926C131.904 54.9307 132.528 56.6665 133.333 58.1998C135.168 61.6132 137.962 63.3198 141.717 63.3198C144.448 63.3198 146.88 62.5945 149.013 61.1438C149.453 60.8507 149.885 60.5409 150.311 60.2146C150.857 59.7965 151.391 59.3512 151.914 58.8787C152.172 59.5266 152.488 60.1323 152.864 60.6958C152.866 60.6987 152.868 60.7015 152.87 60.7043C154.106 62.448 155.683 63.3198 157.6 63.3198C159.307 63.3198 160.928 62.5305 162.464 60.9518C162.673 60.7308 162.876 60.4963 163.073 60.2484C164.319 58.6773 165.311 56.5651 166.048 53.9118C165.664 56.8558 165.323 59.1172 165.024 60.6958L164.832 62.1678C160.267 65.6665 156.725 68.7598 154.208 71.4478C151.733 74.1785 150.027 76.5892 149.088 78.6798C148.192 80.7705 147.744 82.8185 147.744 84.8239C147.744 86.9999 148.427 88.7492 149.792 90.0718C151.157 91.4372 152.928 92.1199 155.104 92.1199C159.712 92.1199 163.403 88.9199 166.176 82.5199C168.949 76.1199 171.125 67.4372 172.704 56.4718C172.875 55.3625 173.451 51.7998 174.432 45.7838C175.541 39.5118 176.096 35.8638 176.096 34.8398C176.096 34.2425 175.904 33.8158 175.52 33.5598C175.136 33.3038 174.453 33.1758 173.472 33.1758C172.064 33.1758 170.997 33.4532 170.272 34.0078C169.589 34.5625 169.077 35.4798 168.736 36.7598C167.712 40.5572 166.645 43.7572 165.536 46.3598C164.469 48.9625 163.445 50.9038 162.464 52.1838C161.525 53.4638 160.736 54.1038 160.096 54.1038C159.2 54.1038 158.752 53.2932 158.752 51.6718C158.752 50.6479 158.88 49.3465 159.136 47.7678C159.392 46.1465 159.691 44.4612 160.032 42.7118C160.288 41.4318 160.629 40.0025 161.056 38.4238C161.525 36.4612 161.76 35.3092 161.76 34.9678C161.76 34.3705 161.568 33.9225 161.184 33.6238C160.843 33.3252 160.203 33.1758 159.264 33.1758C157.6 33.1758 156.384 33.4532 155.616 34.0078C154.848 34.5625 154.251 35.4798 153.824 36.7598C152.843 39.7465 152.139 42.5838 151.712 45.2718C151.562 46.204 151.438 47.1706 151.34 48.1716C151.332 48.2532 151.325 48.335 151.317 48.4171C151.316 48.4236 151.316 48.4302 151.315 48.4367C151.225 49.4146 151.16 50.4249 151.12 51.4677C150.38 52.2869 149.697 52.9931 149.073 53.5865C148.567 54.0679 148.099 54.4751 147.669 54.8078C146.346 55.7892 144.81 56.2798 143.061 56.2798C141.952 56.2798 141.056 55.9172 140.373 55.1918C139.69 54.4239 139.2 53.1652 138.901 51.4158C143.722 44.8452 147.541 38.2105 150.357 31.5118C153.173 24.8132 154.581 18.9252 154.581 13.8478C154.581 10.3065 153.984 7.59718 152.789 5.71984C151.637 3.79984 150.037 2.83984 147.989 2.83984C144.362 2.83984 141.226 5.22918 138.581 10.0078C135.978 14.7865 133.994 20.5038 132.629 27.1598C131.553 32.574 130.915 37.5083 130.714 41.9626C130.683 42.6583 130.662 43.3423 130.652 44.0146C129.944 44.1543 129.276 44.2764 128.647 44.381C128.128 44.4674 127.635 44.5419 127.17 44.6043C126.337 44.7161 125.592 44.7892 124.935 44.8238C125.229 44.1139 125.48 43.4267 125.69 42.7624C126.211 41.1112 126.471 39.601 126.471 38.2318C126.471 36.5678 126.087 35.3092 125.319 34.4558C124.551 33.5598 123.548 33.1118 122.311 33.1118C120.903 33.1118 119.644 33.5385 118.535 34.3918C117.426 35.2452 116.551 36.3545 115.911 37.7198C115.271 39.0852 114.951 40.4932 114.951 41.9438C114.951 43.6505 115.271 45.1225 115.911 46.3598C114.952 48.0537 113.634 50.1786 111.957 52.7343C111.395 53.5905 110.793 54.495 110.151 55.4478C110.066 54.3354 109.988 53.2525 109.915 52.1992C109.475 45.819 109.255 40.5232 109.255 36.3118C109.255 35.1598 108.978 34.3492 108.423 33.8798C107.911 33.3678 107.1 33.1118 105.991 33.1118C104.54 33.1118 103.452 33.3892 102.727 33.9438C102.002 34.4985 101.618 35.4798 101.575 36.8878V39.1278C101.575 41.682 101.658 44.4788 101.825 47.5184C101.854 48.0527 101.886 48.5946 101.92 49.144C101.92 49.1486 101.921 49.1533 101.921 49.158C101.943 49.5053 101.965 49.8557 101.989 50.209C101.322 50.9998 100.705 51.7104 100.137 52.3409C99.2644 53.31 98.5093 54.0896 97.8719 54.6798C96.7199 55.7465 95.7599 56.2798 94.9919 56.2798C94.1812 56.2798 93.6052 55.9385 93.2639 55.2558C92.9226 54.5732 92.7519 53.5918 92.7519 52.3118C92.7519 50.6478 93.2639 47.4692 94.2879 42.7758C95.0985 38.8932 95.5039 36.4185 95.5039 35.3518C95.5039 33.9012 94.4159 33.1758 92.2399 33.1758C90.8319 33.1758 89.8079 33.4318 89.1679 33.9438C88.5279 34.4558 88.0159 35.3945 87.6319 36.7598C87.1031 38.5519 86.635 40.445 86.2276 42.4393C86.2117 42.5171 86.1959 42.595 86.1802 42.6731C86.0137 43.5007 85.8576 44.3457 85.7119 45.2078C85.69 45.3471 85.6686 45.4852 85.6478 45.6221C84.8371 46.2251 84.11 46.5982 83.4666 46.7412C83.2666 46.7856 83.0747 46.8078 82.8909 46.8078C81.8242 46.8078 81.2909 46.0612 81.2909 44.5678C81.2909 44.1412 81.4616 43.0745 81.8029 41.3678C82.1869 39.2345 82.3789 37.8905 82.3789 37.3358C82.3789 34.5625 80.9922 33.1758 78.2189 33.1758C76.8109 33.1758 75.2535 33.6665 73.5469 34.6478C71.8829 35.6292 70.1762 37.2718 68.4269 39.5758C67.8481 40.3381 67.288 41.1752 66.7466 42.0869C66.3757 42.7115 66.0136 43.3711 65.6603 44.0657C64.9704 45.4221 64.3139 46.9121 63.6909 48.5358C63.8615 46.6585 64.0749 45.0798 64.3309 43.7998C64.4804 43.0521 64.6591 42.2315 64.8669 41.3382C65.0148 40.7023 65.1775 40.0295 65.3549 39.3198C65.9949 36.9305 66.3149 35.3945 66.3149 34.7118C66.3149 34.1145 66.1442 33.7092 65.8029 33.4958C65.4616 33.2825 64.8642 33.1758 64.0109 33.1758C62.4322 33.1758 61.1949 33.4745 60.2989 34.0718C59.4455 34.6265 58.8269 35.5225 58.4429 36.7598C56.8642 41.7518 56.0749 47.0212 56.0749 52.5678C56.0749 56.3225 56.3949 59.0532 57.0349 60.7598C57.7175 62.4665 58.8695 63.3198 60.4909 63.3198C61.8135 63.3198 62.7736 62.9785 63.3709 62.2958ZM71.8639 43.9309C71.8642 43.9305 71.8652 43.9373 71.866 43.9524C71.8639 43.9388 71.8635 43.9313 71.8639 43.9309ZM88.0631 29.2018L88.0446 29.1841C86.6718 27.8767 86.0799 26.1346 86.0799 24.2158C86.0799 22.1286 86.9189 20.3386 88.5086 18.9833C90.1065 17.6147 92.0553 16.9678 94.2239 16.9678C96.1282 16.9678 97.8785 17.4351 99.2965 18.5448C100.829 19.7446 101.536 21.4516 101.536 23.3838C101.536 25.5683 100.804 27.4955 99.2284 28.9495L99.2129 28.9638L99.197 28.9778C97.6404 30.3548 95.6575 30.9518 93.4559 30.9518C91.4023 30.9518 89.4888 30.4917 88.0821 29.2189L88.0631 29.2018ZM89.8079 20.5038C88.6559 21.4852 88.0799 22.7225 88.0799 24.2158C88.0799 25.7092 88.5279 26.8825 89.4239 27.7358C90.3199 28.5465 91.6639 28.9518 93.4559 28.9518C95.2906 28.9518 96.7626 28.4612 97.8719 27.4798C98.9812 26.4558 99.5359 25.0905 99.5359 23.3838C99.5359 21.9758 99.0452 20.8878 98.0639 20.1198C97.0826 19.3518 95.8026 18.9678 94.2239 18.9678C92.4745 18.9678 91.0025 19.4798 89.8079 20.5038ZM146.294 12.3144C145.95 13.0044 145.564 13.9381 145.141 15.1475C143.95 18.5567 142.885 22.8408 141.958 28.024C141.618 29.9204 141.336 31.7862 141.111 33.6216C142.129 31.4531 143.026 29.2881 143.802 27.1265C145.538 22.2487 146.373 17.8937 146.373 14.0398C146.373 13.3447 146.343 12.7745 146.294 12.3144ZM145.685 27.7998C147.477 22.7652 148.373 18.1785 148.373 14.0398C148.373 10.7972 147.776 9.17585 146.581 9.17585C145.6 9.17585 144.49 10.9465 143.253 14.4878C142.016 18.0292 140.928 22.4238 139.989 27.6718C139.326 31.3757 138.876 34.9733 138.639 38.4647C138.54 39.9202 138.478 41.3573 138.453 42.7758C139.209 41.5297 139.927 40.2836 140.606 39.0375C142.647 35.2916 144.34 31.5457 145.685 27.7998ZM156.065 83.5947C156.479 83.166 157.006 82.4202 157.628 81.2571C158.263 80.0696 158.922 78.4067 159.599 76.2431C158.914 77.0308 158.34 77.7778 157.873 78.4841C156.523 80.6326 156.016 82.252 156.016 83.4158C156.016 83.4966 156.018 83.5706 156.022 83.6382C156.036 83.6244 156.05 83.6098 156.065 83.5947ZM154.4 85.2078C154.699 85.6772 155.168 85.9118 155.808 85.9118C156.875 85.9118 158.069 84.6745 159.392 82.1998C160.438 80.243 161.484 77.2591 162.53 73.2481C162.806 72.1866 163.083 71.0532 163.36 69.8478C162.411 70.6488 161.537 71.4284 160.738 72.1867C158.769 74.0539 157.254 75.7916 156.192 77.3998C154.741 79.7038 154.016 81.7092 154.016 83.4158C154.016 84.1412 154.144 84.7385 154.4 85.2078Z" fill="white"/>
</svg>
